<svg width="32" height="32" viewBox="0 0 32 32" fill="none" xmlns="http://www.w3.org/2000/svg">
<path d="M21.5842 16L16.4175 21.2C16.1731 21.4444 16.0453 21.75 16.0342 22.1166C16.0231 22.4833 16.1508 22.8 16.4175 23.0667C16.662 23.3111 16.9731 23.4333 17.3508 23.4333C17.7286 23.4333 18.0397 23.3111 18.2842 23.0667L24.4175 16.9333C24.5508 16.8 24.6453 16.6555 24.7008 16.5C24.7564 16.3444 24.7842 16.1778 24.7842 16C24.7842 15.8222 24.7564 15.6555 24.7008 15.5C24.6453 15.3444 24.5508 15.2 24.4175 15.0667L18.2842 8.93332C18.0397 8.68887 17.7342 8.56109 17.3675 8.54998C17.0008 8.53887 16.6842 8.66665 16.4175 8.93332C16.1731 9.17776 16.0508 9.48887 16.0508 9.86665C16.0508 10.2444 16.1731 10.5555 16.4175 10.8L21.5842 16ZM12.7842 16L7.61751 21.2C7.37307 21.4444 7.24529 21.75 7.23418 22.1166C7.22307 22.4833 7.35085 22.8 7.61751 23.0667C7.86196 23.3111 8.17307 23.4333 8.55085 23.4333C8.92862 23.4333 9.23973 23.3111 9.48418 23.0667L15.6175 16.9333C15.7508 16.8 15.8453 16.6555 15.9008 16.5C15.9564 16.3444 15.9842 16.1778 15.9842 16C15.9842 15.8222 15.9564 15.6555 15.9008 15.5C15.8453 15.3444 15.7508 15.2 15.6175 15.0667L9.48418 8.93332C9.23973 8.68887 8.93418 8.56109 8.56751 8.54998C8.20085 8.53887 7.88418 8.66665 7.61751 8.93332C7.37307 9.17776 7.25084 9.48887 7.25084 9.86665C7.25084 10.2444 7.37307 10.5555 7.61751 10.8L12.7842 16Z" fill="#CCCCCC"/>
</svg>
