<svg width="137" height="24" viewBox="0 0 137 24" fill="none" xmlns="http://www.w3.org/2000/svg">
<path d="M127.966 23.49C126.296 23.49 124.821 23.125 123.541 22.395C122.261 21.655 121.256 20.67 120.526 19.44C119.806 18.21 119.446 16.86 119.446 15.39C119.446 14.32 119.651 13.3 120.061 12.33C120.481 11.35 121.071 10.485 121.831 9.73504C122.591 8.97504 123.491 8.38004 124.531 7.95004C125.571 7.51004 126.716 7.29004 127.966 7.29004C129.636 7.29004 131.111 7.66004 132.391 8.40004C133.671 9.13004 134.671 10.11 135.391 11.34C136.111 12.57 136.471 13.92 136.471 15.39C136.471 16.46 136.266 17.485 135.856 18.465C135.446 19.435 134.861 20.295 134.101 21.045C133.341 21.795 132.441 22.39 131.401 22.83C130.361 23.27 129.216 23.49 127.966 23.49ZM127.966 19.26C128.666 19.26 129.296 19.105 129.856 18.795C130.416 18.475 130.856 18.025 131.176 17.445C131.496 16.865 131.656 16.18 131.656 15.39C131.656 14.59 131.496 13.905 131.176 13.335C130.866 12.755 130.431 12.31 129.871 12C129.311 11.68 128.676 11.52 127.966 11.52C127.256 11.52 126.621 11.68 126.061 12C125.501 12.31 125.061 12.755 124.741 13.335C124.421 13.905 124.261 14.59 124.261 15.39C124.261 16.18 124.421 16.865 124.741 17.445C125.071 18.025 125.516 18.475 126.076 18.795C126.636 19.105 127.266 19.26 127.966 19.26Z" fill="#333333"/>
<path d="M107.97 23.4901C106.52 23.4901 105.22 23.1551 104.07 22.4851C102.92 21.8051 102.015 20.8601 101.355 19.6501C100.695 18.4301 100.365 17.0101 100.365 15.3901C100.365 14.2401 100.555 13.1751 100.935 12.1951C101.315 11.2151 101.845 10.3601 102.525 9.63006C103.215 8.89006 104.03 8.31506 104.97 7.90506C105.91 7.49506 106.94 7.29006 108.06 7.29006C109.23 7.29006 110.285 7.52006 111.225 7.98006C112.165 8.44006 112.985 9.12506 113.685 10.0351L112.56 11.1601V1.44006H117.48V23.0401H113.235V19.0651L113.91 20.1751C113.47 21.1551 112.735 21.9551 111.705 22.5751C110.675 23.1851 109.43 23.4901 107.97 23.4901ZM108.885 19.2601C109.585 19.2601 110.215 19.1051 110.775 18.7951C111.335 18.4751 111.775 18.0251 112.095 17.4451C112.415 16.8651 112.575 16.1801 112.575 15.3901C112.575 14.5901 112.415 13.9051 112.095 13.3351C111.785 12.7551 111.35 12.3101 110.79 12.0001C110.23 11.6801 109.595 11.5201 108.885 11.5201C108.175 11.5201 107.54 11.6801 106.98 12.0001C106.42 12.3101 105.98 12.7551 105.66 13.3351C105.34 13.9051 105.18 14.5901 105.18 15.3901C105.18 16.1801 105.34 16.8651 105.66 17.4451C105.99 18.0251 106.435 18.4751 106.995 18.7951C107.555 19.1051 108.185 19.2601 108.885 19.2601Z" fill="#333333"/>
<path d="M90.1055 16.71V12.405H98.9255V16.71H90.1055Z" fill="#333333"/>
<path d="M80.1289 23.49C78.4589 23.49 76.9839 23.125 75.7039 22.395C74.4239 21.655 73.4189 20.67 72.6889 19.44C71.9689 18.21 71.6089 16.86 71.6089 15.39C71.6089 14.32 71.8139 13.3 72.2239 12.33C72.6439 11.35 73.2339 10.485 73.9939 9.73504C74.7539 8.97504 75.6539 8.38004 76.6939 7.95004C77.7339 7.51004 78.8789 7.29004 80.1289 7.29004C81.7989 7.29004 83.2739 7.66004 84.5539 8.40004C85.8339 9.13004 86.8339 10.11 87.5539 11.34C88.2739 12.57 88.6339 13.92 88.6339 15.39C88.6339 16.46 88.4289 17.485 88.0189 18.465C87.6089 19.435 87.0239 20.295 86.2639 21.045C85.5039 21.795 84.6039 22.39 83.5639 22.83C82.5239 23.27 81.3789 23.49 80.1289 23.49ZM80.1289 19.26C80.8289 19.26 81.4589 19.105 82.0189 18.795C82.5789 18.475 83.0189 18.025 83.3389 17.445C83.6589 16.865 83.8189 16.18 83.8189 15.39C83.8189 14.59 83.6589 13.905 83.3389 13.335C83.0289 12.755 82.5939 12.31 82.0339 12C81.4739 11.68 80.8389 11.52 80.1289 11.52C79.4189 11.52 78.7839 11.68 78.2239 12C77.6639 12.31 77.2239 12.755 76.9039 13.335C76.5839 13.905 76.4239 14.59 76.4239 15.39C76.4239 16.18 76.5839 16.865 76.9039 17.445C77.2339 18.025 77.6789 18.475 78.2389 18.795C78.7989 19.105 79.4289 19.26 80.1289 19.26Z" fill="#333333"/>
<path d="M67.0115 23.49C65.3115 23.49 63.9765 23.015 63.0065 22.065C62.0365 21.105 61.5515 19.675 61.5515 17.775V3.35999H66.4715V7.73998H70.0565V11.64H66.4715V16.92C66.4715 17.74 66.6515 18.315 67.0115 18.645C67.3715 18.975 67.8365 19.14 68.4065 19.14C68.7165 19.14 69.0215 19.105 69.3215 19.035C69.6315 18.955 69.9165 18.84 70.1765 18.69L70.8065 22.545C70.3365 22.805 69.7715 23.025 69.1115 23.205C68.4515 23.395 67.7515 23.49 67.0115 23.49ZM58.5815 11.64V7.73998H62.0015V11.64H58.5815Z" fill="#333333"/>
<path d="M41.5718 23.4901C40.1218 23.4901 38.8218 23.1551 37.6718 22.4851C36.5218 21.8051 35.6168 20.8601 34.9568 19.6501C34.2968 18.4301 33.9668 17.0101 33.9668 15.3901C33.9668 14.2401 34.1568 13.1751 34.5368 12.1951C34.9168 11.2151 35.4468 10.3601 36.1268 9.63006C36.8168 8.89006 37.6318 8.31506 38.5718 7.90506C39.5118 7.49506 40.5418 7.29006 41.6618 7.29006C42.8318 7.29006 43.8868 7.52006 44.8268 7.98006C45.7668 8.44006 46.5868 9.12506 47.2868 10.0351L46.1618 11.1601V1.44006H51.0818V23.0401H46.8368V19.0651L47.5118 20.1751C47.0718 21.1551 46.3368 21.9551 45.3068 22.5751C44.2768 23.1851 43.0318 23.4901 41.5718 23.4901ZM42.4868 19.2601C43.1868 19.2601 43.8168 19.1051 44.3768 18.7951C44.9368 18.4751 45.3768 18.0251 45.6968 17.4451C46.0168 16.8651 46.1768 16.1801 46.1768 15.3901C46.1768 14.5901 46.0168 13.9051 45.6968 13.3351C45.3868 12.7551 44.9518 12.3101 44.3918 12.0001C43.8318 11.6801 43.1968 11.5201 42.4868 11.5201C41.7768 11.5201 41.1418 11.6801 40.5818 12.0001C40.0218 12.3101 39.5818 12.7551 39.2618 13.3351C38.9418 13.9051 38.7818 14.5901 38.7818 15.3901C38.7818 16.1801 38.9418 16.8651 39.2618 17.4451C39.5918 18.0251 40.0368 18.4751 40.5968 18.7951C41.1568 19.1051 41.7868 19.2601 42.4868 19.2601Z" fill="#333333"/>
<path d="M27.0586 23.04V7.74H31.9786V23.04H27.0586ZM29.5186 5.475C28.7286 5.475 28.0386 5.23 27.4486 4.74C26.8686 4.24 26.5786 3.575 26.5786 2.745C26.5786 1.895 26.8686 1.225 27.4486 0.734998C28.0386 0.244999 28.7286 0 29.5186 0C30.3186 0 31.0086 0.244999 31.5886 0.734998C32.1686 1.225 32.4586 1.895 32.4586 2.745C32.4586 3.575 32.1686 4.24 31.5886 4.74C31.0086 5.23 30.3186 5.475 29.5186 5.475Z" fill="#333333"/>
<path d="M18.9351 23.0401V1.44006H23.8551V23.0401H18.9351Z" fill="#333333"/>
<path d="M8.445 23.49C6.855 23.49 5.31 23.255 3.81 22.785C2.31 22.315 1.04 21.635 0 20.745L2.34 17.025C2.78 17.495 3.34 17.9 4.02 18.24C4.7 18.58 5.425 18.845 6.195 19.035C6.975 19.215 7.73 19.305 8.46 19.305C9.49 19.305 10.325 19.135 10.965 18.795C11.615 18.445 11.94 17.94 11.94 17.28C11.94 16.74 11.705 16.285 11.235 15.915C10.775 15.545 9.91 15.19 8.64 14.85L6.84 14.34C4.68 13.74 3.125 12.92 2.175 11.88C1.225 10.84 0.75 9.58998 0.75 8.12998C0.75 7.18998 0.95 6.32498 1.35 5.53498C1.75 4.73498 2.31 4.04498 3.03 3.46498C3.75 2.87498 4.595 2.41998 5.565 2.09998C6.545 1.76998 7.61 1.60498 8.76 1.60498C10.35 1.60498 11.825 1.83998 13.185 2.30998C14.555 2.76998 15.655 3.39998 16.485 4.19998L14.055 7.79998C13.675 7.39998 13.205 7.04998 12.645 6.74998C12.085 6.44998 11.475 6.21498 10.815 6.04498C10.155 5.87498 9.49 5.78998 8.82 5.78998C8.16 5.78998 7.585 5.87498 7.095 6.04498C6.605 6.21498 6.22 6.45998 5.94 6.77998C5.67 7.08998 5.535 7.45998 5.535 7.88998C5.535 8.23998 5.635 8.53498 5.835 8.77498C6.045 9.00498 6.39 9.22498 6.87 9.43498C7.36 9.64498 8.02 9.87498 8.85 10.125L10.68 10.665C12.83 11.295 14.385 12.085 15.345 13.035C16.305 13.985 16.785 15.22 16.785 16.74C16.785 18.07 16.445 19.245 15.765 20.265C15.085 21.275 14.12 22.065 12.87 22.635C11.63 23.205 10.155 23.49 8.445 23.49Z" fill="#333333"/>
</svg>
