<svg width="17" height="17" viewBox="0 0 17 17" fill="none" xmlns="http://www.w3.org/2000/svg">
<path d="M3.54167 15.5834C3.15208 15.5834 2.81858 15.4447 2.54115 15.1673C2.26372 14.8898 2.125 14.5563 2.125 14.1667V4.25008C2.125 3.8605 2.26372 3.52699 2.54115 3.24956C2.81858 2.97213 3.15208 2.83341 3.54167 2.83341H4.25V2.12508C4.25 1.92439 4.31788 1.75616 4.45365 1.62039C4.58941 1.48463 4.75764 1.41675 4.95833 1.41675C5.15903 1.41675 5.32726 1.48463 5.46302 1.62039C5.59878 1.75616 5.66667 1.92439 5.66667 2.12508V2.83341H11.3333V2.12508C11.3333 1.92439 11.4012 1.75616 11.537 1.62039C11.6727 1.48463 11.841 1.41675 12.0417 1.41675C12.2424 1.41675 12.4106 1.48463 12.5464 1.62039C12.6821 1.75616 12.75 1.92439 12.75 2.12508V2.83341H13.4583C13.8479 2.83341 14.1814 2.97213 14.4589 3.24956C14.7363 3.52699 14.875 3.8605 14.875 4.25008V14.1667C14.875 14.5563 14.7363 14.8898 14.4589 15.1673C14.1814 15.4447 13.8479 15.5834 13.4583 15.5834H3.54167ZM3.54167 14.1667H13.4583V7.08341H3.54167V14.1667ZM3.54167 5.66675H13.4583V4.25008H3.54167V5.66675Z" fill="#A4A4A4"/>
</svg>
