<svg width="120" height="120" viewBox="0 0 120 120" fill="none" xmlns="http://www.w3.org/2000/svg">
<path d="M39.7842 55.0112C41.0549 52.6513 43.5188 51.1797 46.1991 51.1797H74.8048C77.4851 51.1797 79.949 52.6513 81.2197 55.0112L103.221 95.8706C105.835 100.725 102.319 106.61 96.806 106.61H24.1979C18.6849 106.61 15.1693 100.725 17.783 95.8706L39.7842 55.0112Z" fill="url(#paint0_linear_18728_52377)"/>
<path d="M74.8929 51.1797H46.1112C43.5731 51.1797 41.218 52.5006 39.8945 54.6663L29.3223 71.9662L40.3071 66.8622C43.2272 65.5053 46.5971 65.5053 49.5173 66.8622L55.897 69.8265C58.8171 71.1833 62.187 71.1833 65.1072 69.8265L71.4869 66.8622C74.4071 65.5053 77.7769 65.5053 80.6971 66.8622L91.6819 71.9662L81.1097 54.6663C79.7862 52.5006 77.431 51.1797 74.8929 51.1797Z" fill="url(#paint1_linear_18728_52377)"/>
<line x1="57.2171" y1="30.3931" x2="57.2171" y2="51.1788" stroke="#FF8442" stroke-width="7.28571"/>
<path d="M53.5742 23.6429C53.5742 21.631 55.2052 20 57.2171 20H84.3296C85.8739 20 86.7175 21.8011 85.7289 22.9875L81.5008 28.0612C80.375 29.4121 80.375 31.3744 81.5008 32.7254L85.7289 37.7991C86.7175 38.9854 85.8739 40.7866 84.3296 40.7866H57.2171C55.2052 40.7866 53.5742 39.1556 53.5742 37.1437V23.6429Z" fill="#FF8442"/>
<defs>
<linearGradient id="paint0_linear_18728_52377" x1="60.502" y1="51.1797" x2="60.502" y2="106.61" gradientUnits="userSpaceOnUse">
<stop stop-color="#FF9035"/>
<stop offset="1" stop-color="#FFCC34"/>
</linearGradient>
<linearGradient id="paint1_linear_18728_52377" x1="60.5021" y1="51.1797" x2="60.5021" y2="71.9662" gradientUnits="userSpaceOnUse">
<stop stop-color="white"/>
<stop offset="0.653846" stop-color="white"/>
</linearGradient>
</defs>
</svg>
