<svg viewBox="0 0 24 24" fill="none" xmlns="http://www.w3.org/2000/svg">
<path d="M6.16667 20.3337C5.70833 20.3337 5.31597 20.1705 4.98958 19.8441C4.66319 19.5177 4.5 19.1253 4.5 18.667V7.00032C4.5 6.54199 4.66319 6.14963 4.98958 5.82324C5.31597 5.49685 5.70833 5.33366 6.16667 5.33366H7V4.50033C7 4.26421 7.07986 4.0663 7.23958 3.90658C7.39931 3.74685 7.59722 3.66699 7.83333 3.66699C8.06944 3.66699 8.26736 3.74685 8.42708 3.90658C8.58681 4.0663 8.66667 4.26421 8.66667 4.50033V5.33366H15.3333V4.50033C15.3333 4.26421 15.4132 4.0663 15.5729 3.90658C15.7326 3.74685 15.9306 3.66699 16.1667 3.66699C16.4028 3.66699 16.6007 3.74685 16.7604 3.90658C16.9201 4.0663 17 4.26421 17 4.50033V5.33366H17.8333C18.2917 5.33366 18.684 5.49685 19.0104 5.82324C19.3368 6.14963 19.5 6.54199 19.5 7.00032V18.667C19.5 19.1253 19.3368 19.5177 19.0104 19.8441C18.684 20.1705 18.2917 20.3337 17.8333 20.3337H6.16667ZM6.16667 18.667H17.8333V10.3337H6.16667V18.667ZM6.16667 8.66699H17.8333V7.00032H6.16667V8.66699Z" fill="currentColor"/>
</svg>
