<svg viewBox="0 0 20 20" fill="none" xmlns="http://www.w3.org/2000/svg">
<path d="M1.91075 1.91081C2.23619 1.58537 2.76452 1.58537 3.08995 1.91081L6.12299 4.94385C6.16891 4.98045 6.21087 5.0229 6.24913 5.06999L14.9169 13.7378C14.9693 13.7783 15.0167 13.8263 15.0594 13.8802L18.09 16.9108C18.4151 17.2362 18.4151 17.7638 18.09 18.0892C17.7645 18.4146 17.2362 18.4146 16.9108 18.0892L14.2814 15.4598C13.0774 16.1641 11.6427 16.6667 9.99995 16.6667C7.61546 16.6666 5.67132 15.613 4.2309 14.4108C2.79236 13.2102 1.80575 11.8214 1.31179 11.0392C1.21178 10.8809 1.07134 10.6721 1.00255 10.3719C0.950686 10.1453 0.950609 9.85381 1.00255 9.62728C1.07146 9.32697 1.21235 9.11786 1.31261 8.95915C1.81459 8.16452 2.83562 6.73086 4.331 5.50944L1.91075 3.0892C1.58555 2.7638 1.58555 2.2362 1.91075 1.91081ZM5.51508 6.69353C4.14919 7.77192 3.19504 9.10082 2.72211 9.84945C2.69256 9.89624 2.67189 9.92917 2.65457 9.95769C2.64295 9.97681 2.63524 9.99004 2.63015 9.99919V10C2.63515 10.009 2.64216 10.0224 2.65375 10.0415C2.67097 10.0699 2.69184 10.1031 2.7213 10.1497C3.16521 10.8526 4.04367 12.0832 5.29861 13.1307C6.55182 14.1766 8.13065 14.9999 9.99995 15C11.1273 15 12.1478 14.701 13.0558 14.2342L11.6927 12.8711C11.1965 13.164 10.6176 13.3333 9.99995 13.3333C8.15916 13.3331 6.66661 11.8408 6.66661 10C6.66661 9.38228 6.83588 8.80344 7.12885 8.3073L5.51508 6.69353ZM9.99995 3.33334C12.3846 3.33334 14.3293 4.38697 15.7698 5.5892C17.2083 6.78977 18.1941 8.17862 18.6881 8.96078C18.7756 9.09929 18.8944 9.27601 18.9689 9.51905L18.9982 9.6281L19.0275 9.80795C19.0469 9.99617 19.0371 10.2028 18.9982 10.3727C18.9292 10.6732 18.7877 10.8827 18.6873 11.0417C18.422 11.4615 18.0194 12.0486 17.4861 12.6856C17.1907 13.0384 16.6647 13.0851 16.3118 12.7897C15.9589 12.4943 15.913 11.9683 16.2084 11.6154C16.6844 11.047 17.0433 10.5224 17.2778 10.1514C17.3074 10.1044 17.3287 10.0709 17.3461 10.0423C17.358 10.0227 17.3655 10.0092 17.3706 10V9.99919C17.3656 9.99021 17.3583 9.97717 17.347 9.9585C17.3297 9.93014 17.3089 9.89691 17.2794 9.85026C16.8355 9.14743 15.957 7.91677 14.7021 6.86931C13.4488 5.8233 11.8694 5 9.99995 5C9.68196 5.00002 9.3736 5.02418 9.07465 5.06836C8.61937 5.13568 8.19552 4.82053 8.1282 4.36524C8.06102 3.91005 8.37533 3.48693 8.83051 3.4196C9.2086 3.3637 9.5986 3.33335 9.99995 3.33334ZM2.63097 10.0203V10.0187L2.63015 10.0171C2.63025 10.0185 2.63089 10.0195 2.63097 10.0203ZM8.33328 10C8.33328 10.9204 9.07963 11.6665 9.99995 11.6667C10.1488 11.6667 10.2925 11.6445 10.4296 11.6081L8.39106 9.5695C8.35446 9.70687 8.33328 9.8509 8.33328 10Z" fill="#737373"/>
</svg>
