<svg viewBox="0 0 20 20" fill="none" xmlns="http://www.w3.org/2000/svg">
<path d="M15.8334 9.58333C15.8334 6.13155 13.0352 3.33333 9.58341 3.33333C6.13163 3.33333 3.33341 6.13155 3.33341 9.58333C3.33341 13.0351 6.13163 15.8333 9.58341 15.8333C11.2667 15.8333 12.7932 15.1666 13.9169 14.0845C13.9404 14.0532 13.9657 14.0226 13.9942 13.9941C14.0227 13.9657 14.0533 13.9403 14.0846 13.9168C15.1667 12.7931 15.8334 11.2666 15.8334 9.58333ZM17.5001 9.58333C17.5001 11.4692 16.8391 13.1999 15.7382 14.5597L18.0893 16.9108C18.4147 17.2362 18.4147 17.7638 18.0893 18.0892C17.7638 18.4146 17.2363 18.4146 16.9109 18.0892L14.5598 15.7381C13.2 16.839 11.4693 17.5 9.58341 17.5C5.21116 17.5 1.66675 13.9556 1.66675 9.58333C1.66675 5.21108 5.21116 1.66667 9.58341 1.66667C13.9557 1.66667 17.5001 5.21108 17.5001 9.58333Z" fill="#A4A4A4"/>
</svg>
